<?xml version="1.0" encoding="utf-8"?>
<svg xmlns="http://www.w3.org/2000/svg" version="1.1" width="1000" height="800">

<line x1="0" y1="0" x2="1000" y2="0" stroke="lightgrey" />
<text x="5" y="-5" fill="lightgrey" >0</text>
<line x1="0" y1="100" x2="1000" y2="100" stroke="lightgrey" />
<text x="5" y="95" fill="lightgrey" >100</text>
<line x1="0" y1="200" x2="1000" y2="200" stroke="lightgrey" />
<text x="5" y="195" fill="lightgrey" >200</text>
<line x1="0" y1="300" x2="1000" y2="300" stroke="lightgrey" />
<text x="5" y="295" fill="lightgrey" >300</text>
<line x1="0" y1="400" x2="1000" y2="400" stroke="lightgrey" />
<text x="5" y="395" fill="lightgrey" >400</text>
<line x1="0" y1="500" x2="1000" y2="500" stroke="lightgrey" />
<text x="5" y="495" fill="lightgrey" >500</text>
<line x1="0" y1="600" x2="1000" y2="600" stroke="lightgrey" />
<text x="5" y="595" fill="lightgrey" >600</text>
<line x1="0" y1="700" x2="1000" y2="700" stroke="lightgrey" />
<text x="5" y="695" fill="lightgrey" >700</text>
<line x1="0" y1="800" x2="1000" y2="800" stroke="lightgrey" />
<text x="5" y="795" fill="lightgrey" >800</text>
<line x1="0" y1="0" x2="0" y2="800" stroke="lightgrey" />
<text x="5" y="15" fill="lightgrey" >0</text>
<line x1="100" y1="0" x2="100" y2="800" stroke="lightgrey" />
<text x="105" y="15" fill="lightgrey" >100</text>
<line x1="200" y1="0" x2="200" y2="800" stroke="lightgrey" />
<text x="205" y="15" fill="lightgrey" >200</text>
<line x1="300" y1="0" x2="300" y2="800" stroke="lightgrey" />
<text x="305" y="15" fill="lightgrey" >300</text>
<line x1="400" y1="0" x2="400" y2="800" stroke="lightgrey" />
<text x="405" y="15" fill="lightgrey" >400</text>
<line x1="500" y1="0" x2="500" y2="800" stroke="lightgrey" />
<text x="505" y="15" fill="lightgrey" >500</text>
<line x1="600" y1="0" x2="600" y2="800" stroke="lightgrey" />
<text x="605" y="15" fill="lightgrey" >600</text>
<line x1="700" y1="0" x2="700" y2="800" stroke="lightgrey" />
<text x="705" y="15" fill="lightgrey" >700</text>
<line x1="800" y1="0" x2="800" y2="800" stroke="lightgrey" />
<text x="805" y="15" fill="lightgrey" >800</text>
<line x1="900" y1="0" x2="900" y2="800" stroke="lightgrey" />
<text x="905" y="15" fill="lightgrey" >900</text>
<line x1="1000" y1="0" x2="1000" y2="800" stroke="lightgrey" />
<text x="1005" y="15" fill="lightgrey" >1000</text>
<text x="750" y="65" fill="red" >En rouge: l'indice de l'arete</text>
<text x="750" y="85" fill="lightgreen" >En vert: le poids de l'arete</text>
<text x="750" y="105" fill="black" >Arbre realise a partir du fichier : </text>
<text x="750" y="125" fill="black" >></text>
<text x="760" y="125" fill="black" >fichier1.txt</text>
<text x="750" y="145" fill="black" >Arbre pondere a partir du fichier : </text>
<text x="750" y="165" fill="black" >></text>
<text x="760" y="165" fill="black" >fichier2.txt</text>
<line x1="525" y1="80" x2="350" y2="160" stroke="blue" />
<text x="437" y="120" fill="lightgreen" >2</text>
<text x="437" y="140" fill="red" >0</text>
<line x1="525" y1="80" x2="700" y2="160" stroke="blue" />
<text x="612" y="120" fill="lightgreen" >3</text>
<text x="612" y="140" fill="red" >1</text>
<line x1="350" y1="160" x2="525" y2="240" stroke="blue" />
<text x="437" y="200" fill="lightgreen" >2</text>
<text x="437" y="220" fill="red" >2</text>
<line x1="700" y1="160" x2="525" y2="240" stroke="blue" />
<text x="612" y="200" fill="lightgreen" >4</text>
<text x="612" y="220" fill="red" >3</text>
<line x1="525" y1="240" x2="350" y2="320" stroke="blue" />
<text x="437" y="280" fill="lightgreen" >7</text>
<text x="437" y="300" fill="red" >4</text>
<line x1="525" y1="240" x2="700" y2="320" stroke="blue" />
<text x="612" y="280" fill="lightgreen" >2</text>
<text x="612" y="300" fill="red" >5</text>
<line x1="350" y1="160" x2="175" y2="400" stroke="blue" />
<text x="262" y="280" fill="lightgreen" >4</text>
<text x="262" y="300" fill="red" >6</text>
<line x1="700" y1="160" x2="875" y2="400" stroke="blue" />
<text x="787" y="280" fill="lightgreen" >6</text>
<text x="787" y="300" fill="red" >7</text>
<line x1="350" y1="320" x2="525" y2="320" stroke="blue" />
<text x="437" y="320" fill="lightgreen" >7</text>
<text x="437" y="340" fill="red" >8</text>
<line x1="525" y1="320" x2="700" y2="320" stroke="blue" />
<text x="612" y="320" fill="lightgreen" >1</text>
<text x="612" y="340" fill="red" >9</text>
<line x1="700" y1="320" x2="875" y2="400" stroke="blue" />
<text x="787" y="360" fill="lightgreen" >3</text>
<text x="787" y="380" fill="red" >10</text>
<line x1="350" y1="320" x2="175" y2="400" stroke="blue" />
<text x="262" y="360" fill="lightgreen" >5</text>
<text x="262" y="380" fill="red" >11</text>
<circle cx="525" cy="80" r="4" fill="black" />
<text x="525" y="80" fill="black" >A</text>
<text x="150" y="40" fill="black" >A</text>
<text x="163" y="40" fill="black" >-</text>
<text x="170" y="40" fill="black" >0</text>
<circle cx="350" cy="160" r="4" fill="black" />
<text x="350" y="160" fill="black" >B</text>
<text x="150" y="58" fill="black" >B</text>
<text x="163" y="58" fill="black" >-</text>
<text x="170" y="58" fill="black" >1</text>
<circle cx="700" cy="160" r="4" fill="black" />
<text x="700" y="160" fill="black" >C</text>
<text x="150" y="76" fill="black" >C</text>
<text x="163" y="76" fill="black" >-</text>
<text x="170" y="76" fill="black" >2</text>
<circle cx="525" cy="240" r="4" fill="black" />
<text x="525" y="240" fill="black" >D</text>
<text x="150" y="94" fill="black" >D</text>
<text x="163" y="94" fill="black" >-</text>
<text x="170" y="94" fill="black" >3</text>
<circle cx="350" cy="320" r="4" fill="black" />
<text x="350" y="320" fill="black" >E</text>
<text x="150" y="112" fill="black" >E</text>
<text x="163" y="112" fill="black" >-</text>
<text x="170" y="112" fill="black" >4</text>
<circle cx="525" cy="320" r="4" fill="black" />
<text x="525" y="320" fill="black" >F</text>
<text x="150" y="130" fill="black" >F</text>
<text x="163" y="130" fill="black" >-</text>
<text x="170" y="130" fill="black" >5</text>
<circle cx="700" cy="320" r="4" fill="black" />
<text x="700" y="320" fill="black" >G</text>
<text x="150" y="148" fill="black" >G</text>
<text x="163" y="148" fill="black" >-</text>
<text x="170" y="148" fill="black" >6</text>
<circle cx="175" cy="400" r="4" fill="black" />
<text x="175" y="400" fill="black" >H</text>
<text x="150" y="166" fill="black" >H</text>
<text x="163" y="166" fill="black" >-</text>
<text x="170" y="166" fill="black" >7</text>
<circle cx="875" cy="400" r="4" fill="black" />
<text x="875" y="400" fill="black" >I</text>
<text x="150" y="184" fill="black" >I</text>
<text x="163" y="184" fill="black" >-</text>
<text x="170" y="184" fill="black" >8</text>


</svg>
